<svg width="246" height="249" viewBox="0 0 246 249" fill="none" xmlns="http://www.w3.org/2000/svg">
<path d="M108.15 74.1244C95.5025 83.713 83.5356 94.167 72.3348 105.411C19.559 158.187 -7.16292 216.994 12.6187 236.794C32.4004 256.576 91.2258 229.835 143.983 177.078C155.228 165.871 165.682 153.898 175.27 141.245" stroke="url(#paint0_linear_488_23)" stroke-width="12" stroke-linecap="round" stroke-linejoin="round"/>
<path d="M175.27 141.245C206.39 182.552 219.064 221.411 203.699 236.776C183.899 256.576 125.092 229.835 72.3162 177.078C19.5775 124.284 -7.14444 65.4955 12.6372 45.6953C28.0023 30.3487 66.8605 43.0231 108.168 74.1244" stroke="url(#paint1_linear_488_23)" stroke-width="12" stroke-linecap="round" stroke-linejoin="round"/>
<path d="M145.449 60.448C139.603 59.4273 139.603 51.0582 145.449 50.0561C155.776 48.2672 165.335 43.4399 172.904 36.1909C180.474 28.942 185.71 19.6007 187.944 9.36083L188.278 7.74638C189.54 1.99374 197.742 1.95662 199.041 7.69071L199.487 9.56495C201.816 19.7541 207.102 29.0287 214.681 36.2255C222.261 43.4222 231.797 48.2207 242.093 50.019C247.957 51.0396 247.957 59.4645 242.093 60.4665C231.797 62.2649 222.261 67.0633 214.681 74.2601C207.102 81.4568 201.816 90.7314 199.487 100.921L199.041 102.795C197.742 108.547 189.54 108.51 188.278 102.758L187.907 101.143C185.673 90.9034 180.437 81.5621 172.867 74.3132C165.298 67.0642 155.739 62.2369 145.412 60.448M98.8711 141.245C98.8711 143.706 99.8486 146.066 101.589 147.806C103.329 149.546 105.689 150.523 108.15 150.523C110.61 150.523 112.97 149.546 114.71 147.806C116.45 146.066 117.428 143.706 117.428 141.245C117.428 138.784 116.45 136.424 114.71 134.684C112.97 132.944 110.61 131.966 108.15 131.966C105.689 131.966 103.329 132.944 101.589 134.684C99.8486 136.424 98.8711 138.784 98.8711 141.245Z" stroke="url(#paint2_linear_488_23)" stroke-width="12" stroke-linecap="round" stroke-linejoin="round"/>
<defs>
<linearGradient id="paint0_linear_488_23" x1="90.6828" y1="74.1244" x2="90.6828" y2="243.315" gradientUnits="userSpaceOnUse">
<stop stop-color="#E661A5"/>
<stop offset="1" stop-color="#0AD2F0"/>
</linearGradient>
<linearGradient id="paint1_linear_488_23" x1="108.17" y1="39.1792" x2="108.17" y2="243.306" gradientUnits="userSpaceOnUse">
<stop stop-color="#E661A5"/>
<stop offset="1" stop-color="#0AD2F0"/>
</linearGradient>
<linearGradient id="paint2_linear_488_23" x1="172.681" y1="3.41095" x2="172.681" y2="150.523" gradientUnits="userSpaceOnUse">
<stop stop-color="#E661A5"/>
<stop offset="1" stop-color="#0AD2F0"/>
</linearGradient>
</defs>
</svg>
